inDegrees=no
num_controls=7
num_derivatives=13
num_iterations=106
num_multipliers=7
num_parameters=0
num_slacks=7
num_states=26
objective=0.497141
objective_accelerations=0.032342
objective_balance=0.003243
objective_effort=0.035056
objective_height=0.421009
objective_ligament=0.005490
solver_duration=1225.719066
status=Solve_Succeeded
success=true
DataType=double
version=3
OpenSimVersion=4.5
endheader
time	/jointset/ground_pelvis/pelvis_tilt/value	/jointset/ground_pelvis/pelvis_tx/value	/jointset/ground_pelvis/pelvis_ty/value	/jointset/hip_r/hip_flexion_r/value	/jointset/hip_r/hip_adduction_r/value	/jointset/hip_r/hip_rotation_r/value	/jointset/back/lumbar_extension/value	/jointset/patellofemoral_r/patellar_flexion_r/value	/jointset/knee_r/knee_flexion_r/value	/jointset/knee_r/knee_adduction_r/value	/jointset/knee_r/knee_rotation_r/value	/jointset/ankle_r/ankle_angle_r/value	/jointset/subtalar_r/subtalar_angle_r/value	/jointset/ground_pelvis/pelvis_tilt/speed	/jointset/ground_pelvis/pelvis_tx/speed	/jointset/ground_pelvis/pelvis_ty/speed	/jointset/hip_r/hip_flexion_r/speed	/jointset/hip_r/hip_adduction_r/speed	/jointset/hip_r/hip_rotation_r/speed	/jointset/back/lumbar_extension/speed	/jointset/patellofemoral_r/patellar_flexion_r/speed	/jointset/knee_r/knee_flexion_r/speed	/jointset/knee_r/knee_adduction_r/speed	/jointset/knee_r/knee_rotation_r/speed	/jointset/ankle_r/ankle_angle_r/speed	/jointset/subtalar_r/subtalar_angle_r/speed	/forceset/tau_hip_flexion_r	/forceset/tau_hip_adduction_r	/forceset/tau_hip_rotation_r	/forceset/tau_knee_flexion_r	/forceset/tau_ankle_angle_r	/forceset/tau_subtalar_angle_r	/forceset/tau_lumbar_extension	lambda_cid13_p0	lambda_cid14_p0	lambda_cid14_p1	lambda_cid14_p2	lambda_cid14_p3	lambda_cid14_p4	lambda_cid14_p5	/jointset/ground_pelvis/pelvis_tilt/accel	/jointset/ground_pelvis/pelvis_tx/accel	/jointset/ground_pelvis/pelvis_ty/accel	/jointset/hip_r/hip_flexion_r/accel	/jointset/hip_r/hip_adduction_r/accel	/jointset/hip_r/hip_rotation_r/accel	/jointset/back/lumbar_extension/accel	/jointset/patellofemoral_r/patellar_flexion_r/accel	/jointset/knee_r/knee_flexion_r/accel	/jointset/knee_r/knee_adduction_r/accel	/jointset/knee_r/knee_rotation_r/accel	/jointset/ankle_r/ankle_angle_r/accel	/jointset/subtalar_r/subtalar_angle_r/accel	gamma_cid13_p0	gamma_cid14_p0	gamma_cid14_p1	gamma_cid14_p2	gamma_cid14_p3	gamma_cid14_p4	gamma_cid14_p5
0	-0.006514766602935113	0.09626002317758432	0.9427241000747981	0.1762555222360518	-0.2321525382169337	-0.2616372335084008	-0.038598046466844	0.07317863873449676	0.07317863873451017	0.1745321687094085	0.1745295597661994	0.03247278518263602	-0.003451859754454885	0	0	0	0	0	0	0	0	0	0	0	0	0	0.2130662434698728	-0.1489355652911434	-0.04265528163259739	-0.3956138605875739	0.3947713432087957	-0.1519072961332687	-0.1108703767441511	-39.07613039177369	76.86584336243395	-42.67099851611183	-3.980966691288947	-34.15980788284304	-679.2647923776877	49.68768363958809	-1.203585378900166	-0.8651283098076901	-0.4870588584200554	7.331543611534032	0.1820407335933862	2.271103199640566	-4.836922628200761	8.465476163994561	8.465476163993728	-2.650220750153979	0.1403725838796305	3.116973342477646	0.8934502299848349	7.92655513332617e-08	4.865289029530014e-08	-5.366934705916256e-07	1.391348365845496e-07	1.845789156123784e-08	5.512482973031566e-08	-2.301532920114865e-07
0.01	-0.006570826061152126	0.09621963134426079	0.9427008062291884	0.1766082625432906	-0.2321419054540751	-0.2615158026937758	-0.03884031767835103	0.07358945107721308	0.07358945107722348	0.1743990341022891	0.1745251606594057	0.03262764807589682	-0.003405880398123297	-0.01128771155241421	-0.007817288314153136	-0.004643508845466911	0.07007101100465711	0.002109797677162987	0.02414980345346105	-0.0480062957899253	0.08175697267789865	0.08175697267789589	-0.02646761880703415	-0.0008629236308728338	0.03108433601239556	0.009206987203493524	0.2168470403476389	-0.166567905543708	-0.04424472528791559	-0.4081384841756752	0.4136799556748745	-0.1418318038634191	-0.1124832918929633	-39.08979853723915	83.35790763121761	-37.25417889338452	-4.735267076302133	-40.9509657554255	-680.4326548854866	61.31995542895511	-1.102734273474768	-0.7008636470312107	-0.4506968312072517	6.773325686852727	0.2228730874638059	2.466501919022056	-4.715291078270795	7.969967586517533	7.969967586517665	-2.621208960201606	-0.1970449994539513	3.120942624949939	0.9359215127668822	1.128328041310244e-07	5.362145155660622e-08	-7.565752543874444e-07	1.742696241269631e-07	5.093359550022003e-08	-9.992131426279115e-08	-3.416035629332313e-07
0.02	-0.006742036680890727	0.09610889971683433	0.9426315373084048	0.177647402128972	-0.2321106899539092	-0.2611569572444564	-0.03954921345253178	0.07480566510007887	0.07480566510007998	0.1740059880042612	0.1745126482836875	0.0330967101081476	-0.003267511460309856	-0.02303023230740513	-0.01406795882058404	-0.009195015034741657	0.1372798556861663	0.004116547461764724	0.04748292693984821	-0.09332491253519616	0.1610803360289966	0.1610803360289953	-0.0519822981830074	-0.001622653777073014	0.0628398277979712	0.01847791629639874	0.2206278372254144	-0.1842002457962663	-0.04583416894324559	-0.420663107763758	0.4325885681409595	-0.131756311593561	-0.1140962070417802	-39.13001669681017	89.92514278720412	-31.84731585044426	-5.461571590708589	-47.91996055502629	-680.4605406342175	72.72490711939366	-1.294547219415894	-0.5518047482628761	-0.4686583271816351	6.759110346904373	0.1614311550810996	2.107767206225743	-4.299386819270081	7.978754298634357	7.978754298634373	-2.4596328639417	0.1610112808142112	3.251204497114047	0.9062386078672243	1.46400056928787e-07	5.85900128179123e-08	-9.764570381832633e-07	2.094044116693767e-07	8.340929943920223e-08	-2.54967458255898e-07	-4.530538338549762e-07
0.03	-0.007031535860169501	0.09594030415273502	0.9425169156193607	0.1793470633148251	-0.23206064831881	-0.2605714984027834	-0.04069940503296149	0.07680440680446045	0.07680440680447238	0.1733640354406942	0.1744958070838109	0.03388301649982553	-0.003037691957105014	-0.03476634640025999	-0.0197076871372273	-0.01373576443949408	0.2023934370602466	0.00582976268523056	0.06948696624368234	-0.1364591964690713	0.2383282234275189	0.2383282234275141	-0.07616140079712073	-0.001747541334689623	0.09416161560557043	0.02736330603428248	0.2117463588806231	-0.1917530755340179	-0.04303800301541961	-0.4064530802928085	0.4076131367443223	-0.1159323998634613	-0.1075477330862257	-39.19566202959852	82.51360161355092	-26.36765132603363	-6.226720889893677	-42.66178400368128	-679.8138649066258	82.27080487858812	-1.097639539012718	-0.5785200300077409	-0.4478011169110226	6.34865028445308	0.1668604201866272	2.228498082964383	-4.282318118779931	7.546809331460317	7.546809331459814	-2.360156321912063	-0.09946007120579471	3.033718817140913	0.8611569750169513	1.66955379772793e-07	6.497174574892674e-08	-1.107704307525439e-06	2.290796836806172e-07	9.70728424160869e-08	-3.368905051937652e-07	-5.093935838870718e-07
0.04	-0.0074352953873204	0.0957136186741417	0.9423566828623119	0.1816900939647874	-0.2319953557886345	-0.2597696440099685	-0.04227331324039346	0.079565428057041	0.07956542805704235	0.1724876703785939	0.1744776727488949	0.03497475134849322	-0.00272272499286781	-0.04588230188487806	-0.02568594171938243	-0.01831722863566941	0.2659537485060643	0.007166726476991537	0.09076203716760275	-0.1780682379363422	0.3135362456660065	0.3135362456659982	-0.09886479788186682	-0.001881280778552435	0.1239255191954951	0.0355074085028857	0.2028648805358181	-0.1993059052717855	-0.04024183708770287	-0.3922430528218475	0.3826377053476774	-0.1001084881333787	-0.1009992591306768	-39.28559369273431	75.17077754911206	-20.88694155818245	-6.979486940909537	-37.57861970130993	-678.1490341580015	91.63111103500731	-1.170515497768914	-0.6195100013649004	-0.476801285466227	6.448456361251779	0.08618086874009261	1.961973530242971	-3.994338325949408	7.570781266627365	7.57078126662738	-2.164491758068163	0.1592409035650035	2.939627653579511	0.7579811540111683	1.872424154012576e-07	7.138261624014137e-08	-1.237124061105685e-06	2.484362027943077e-07	1.103485057855056e-07	-4.173058594088439e-07	-5.64597034519381e-07
